<?xml version="1.0" encoding="UTF-8" standalone="no"?>
<!DOCTYPE svg PUBLIC "-//W3C//DTD SVG 20010904//EN"
              "http://www.w3.org/TR/2001/REC-SVG-20010904/DTD/svg10.dtd">
<svg xmlns="http://www.w3.org/2000/svg" xmlns:xlink="http://www.w3.org/1999/xlink" viewBox="0 0 623 346" width="623" height="346"><path d="M 156.000,88.469 C 153.000,87.469 153.022,87.399 150.000,86.469" stroke-width="5.389" stroke="black" fill="none" stroke-linecap="round"></path><path d="M 150.000,86.469 C 146.522,85.399 146.486,85.515 143.000,84.469" stroke-width="4.284" stroke="black" fill="none" stroke-linecap="round"></path><path d="M 143.000,84.469 C 136.486,82.515 136.618,81.940 130.000,80.469" stroke-width="3.330" stroke="black" fill="none" stroke-linecap="round"></path><path d="M 130.000,80.469 C 123.118,78.940 123.042,78.883 116.000,78.469" stroke-width="3.144" stroke="black" fill="none" stroke-linecap="round"></path><path d="M 116.000,78.469 C 106.042,77.883 106.000,78.469 96.000,78.469" stroke-width="2.664" stroke="black" fill="none" stroke-linecap="round"></path><path d="M 96.000,78.469 C 87.500,78.469 87.500,78.469 79.000,78.469" stroke-width="2.708" stroke="black" fill="none" stroke-linecap="round"></path><path d="M 79.000,78.469 C 68.000,78.469 68.000,78.469 57.000,78.469" stroke-width="2.582" stroke="black" fill="none" stroke-linecap="round"></path><path d="M 57.000,78.469 C 54.500,78.469 54.071,77.433 52.000,78.469" stroke-width="3.607" stroke="black" fill="none" stroke-linecap="round"></path><path d="M 52.000,78.469 C 49.071,79.933 48.613,80.512 47.000,83.469" stroke-width="4.433" stroke="black" fill="none" stroke-linecap="round"></path><path d="M 47.000,83.469 C 45.613,86.012 46.832,86.558 46.000,89.469" stroke-width="4.650" stroke="black" fill="none" stroke-linecap="round"></path><path d="M 46.000,89.469 C 44.832,93.558 44.272,93.398 43.000,97.469" stroke-width="4.541" stroke="black" fill="none" stroke-linecap="round"></path><path d="M 43.000,97.469 C 41.772,101.398 42.062,101.485 41.000,105.469" stroke-width="4.512" stroke="black" fill="none" stroke-linecap="round"></path><path d="M 41.000,105.469 C 40.062,108.985 39.958,108.957 39.000,112.469" stroke-width="4.040" stroke="black" fill="none" stroke-linecap="round"></path><path d="M 39.000,112.469 C 36.958,119.957 36.882,119.939 35.000,127.469" stroke-width="3.268" stroke="black" fill="none" stroke-linecap="round"></path><path d="M 35.000,127.469 C 33.382,133.939 33.516,133.972 32.000,140.469" stroke-width="3.125" stroke="black" fill="none" stroke-linecap="round"></path><path d="M 32.000,140.469 C 30.016,148.972 29.768,148.922 28.000,157.469" stroke-width="2.871" stroke="black" fill="none" stroke-linecap="round"></path><path d="M 28.000,157.469 C 26.768,163.422 27.148,163.497 26.000,169.469" stroke-width="3.145" stroke="black" fill="none" stroke-linecap="round"></path><path d="M 26.000,169.469 C 24.648,176.497 24.225,176.424 23.000,183.469" stroke-width="3.019" stroke="black" fill="none" stroke-linecap="round"></path><path d="M 23.000,183.469 C 22.225,187.924 22.941,188.079 22.000,192.469" stroke-width="3.447" stroke="black" fill="none" stroke-linecap="round"></path><path d="M 22.000,192.469 C 21.441,195.079 20.435,194.860 20.000,197.469" stroke-width="3.986" stroke="black" fill="none" stroke-linecap="round"></path><path d="M 20.000,197.469 C 19.435,200.860 20.000,200.969 20.000,204.469" stroke-width="4.438" stroke="black" fill="none" stroke-linecap="round"></path><path d="M 20.000,204.469 C 20.000,206.969 20.000,206.969 20.000,209.469" stroke-width="4.330" stroke="black" fill="none" stroke-linecap="round"></path><path d="M 20.000,209.469 C 20.000,211.969 20.000,211.969 20.000,214.469" stroke-width="4.299" stroke="black" fill="none" stroke-linecap="round"></path><path d="M 20.000,214.469 C 20.000,219.469 19.266,219.576 20.000,224.469" stroke-width="3.676" stroke="black" fill="none" stroke-linecap="round"></path><path d="M 20.000,224.469 C 20.766,229.576 21.255,229.552 23.000,234.469" stroke-width="3.540" stroke="black" fill="none" stroke-linecap="round"></path><path d="M 23.000,234.469 C 26.755,245.052 26.420,245.231 31.000,255.469" stroke-width="2.604" stroke="black" fill="none" stroke-linecap="round"></path><path d="M 31.000,255.469 C 34.920,264.231 35.021,264.268 40.000,272.469" stroke-width="2.629" stroke="black" fill="none" stroke-linecap="round"></path><path d="M 40.000,272.469 C 43.521,278.268 43.880,278.061 48.000,283.469" stroke-width="2.957" stroke="black" fill="none" stroke-linecap="round"></path><path d="M 48.000,283.469 C 51.880,288.561 51.652,288.810 56.000,293.469" stroke-width="3.129" stroke="black" fill="none" stroke-linecap="round"></path><path d="M 56.000,293.469 C 58.652,296.310 58.709,296.444 62.000,298.469" stroke-width="3.604" stroke="black" fill="none" stroke-linecap="round"></path><path d="M 62.000,298.469 C 65.209,300.444 65.333,300.781 69.000,301.469" stroke-width="4.230" stroke="black" fill="none" stroke-linecap="round"></path><path d="M 69.000,301.469 C 73.333,302.281 73.703,302.424 78.000,301.469" stroke-width="4.380" stroke="black" fill="none" stroke-linecap="round"></path><path d="M 78.000,301.469 C 82.703,300.424 82.697,299.836 87.000,297.469" stroke-width="3.710" stroke="black" fill="none" stroke-linecap="round"></path><path d="M 87.000,297.469 C 92.697,294.336 92.394,293.791 98.000,290.469" stroke-width="3.260" stroke="black" fill="none" stroke-linecap="round"></path><path d="M 98.000,290.469 C 105.894,285.791 106.106,286.146 114.000,281.469" stroke-width="2.912" stroke="black" fill="none" stroke-linecap="round"></path><path d="M 114.000,281.469 C 119.606,278.146 119.578,278.084 125.000,274.469" stroke-width="3.097" stroke="black" fill="none" stroke-linecap="round"></path><path d="M 125.000,274.469 C 128.578,272.084 128.707,272.213 132.000,269.469" stroke-width="3.470" stroke="black" fill="none" stroke-linecap="round"></path><path d="M 132.000,269.469 C 134.707,267.213 134.638,267.093 137.000,264.469" stroke-width="3.807" stroke="black" fill="none" stroke-linecap="round"></path><path d="M 137.000,264.469 C 139.138,262.093 139.168,262.086 141.000,259.469" stroke-width="3.998" stroke="black" fill="none" stroke-linecap="round"></path><path d="M 141.000,259.469 C 142.668,257.086 142.801,257.107 144.000,254.469" stroke-width="4.084" stroke="black" fill="none" stroke-linecap="round"></path><path d="M 144.000,254.469 C 145.301,251.607 145.070,251.490 146.000,248.469" stroke-width="4.095" stroke="black" fill="none" stroke-linecap="round"></path><path d="M 146.000,248.469 C 147.070,244.990 147.452,245.032 148.000,241.469" stroke-width="4.441" stroke="black" fill="none" stroke-linecap="round"></path><path d="M 148.000,241.469 C 148.452,238.532 148.000,238.469 148.000,235.469" stroke-width="4.659" stroke="black" fill="none" stroke-linecap="round"></path><path d="M 148.000,235.469 C 148.000,232.969 148.000,232.969 148.000,230.469" stroke-width="5.194" stroke="black" fill="none" stroke-linecap="round"></path><path d="M 148.000,230.469 C 148.000,226.969 148.000,226.969 148.000,223.469" stroke-width="4.775" stroke="black" fill="none" stroke-linecap="round"></path><path d="M 148.000,223.469 C 148.000,220.969 148.191,220.957 148.000,218.469" stroke-width="4.422" stroke="black" fill="none" stroke-linecap="round"></path><path d="M 148.000,218.469 C 147.691,214.457 148.092,214.290 147.000,210.469" stroke-width="4.490" stroke="black" fill="none" stroke-linecap="round"></path><path d="M 147.000,210.469 C 146.092,207.290 145.687,207.360 144.000,204.469" stroke-width="4.618" stroke="black" fill="none" stroke-linecap="round"></path><path d="M 144.000,204.469 C 142.187,201.360 142.675,200.761 140.000,198.469" stroke-width="4.634" stroke="black" fill="none" stroke-linecap="round"></path><path d="M 140.000,198.469 C 135.675,194.761 135.233,194.931 130.000,192.469" stroke-width="4.289" stroke="black" fill="none" stroke-linecap="round"></path><path d="M 130.000,192.469 C 126.733,190.931 126.507,191.443 123.000,190.469" stroke-width="4.037" stroke="black" fill="none" stroke-linecap="round"></path><path d="M 123.000,190.469 C 117.507,188.943 117.592,188.504 112.000,187.469" stroke-width="3.543" stroke="black" fill="none" stroke-linecap="round"></path><path d="M 112.000,187.469 C 104.092,186.004 104.034,185.928 96.000,185.469" stroke-width="2.989" stroke="black" fill="none" stroke-linecap="round"></path><path d="M 96.000,185.469 C 86.534,184.928 86.500,185.469 77.000,185.469" stroke-width="2.684" stroke="black" fill="none" stroke-linecap="round"></path><path d="M 77.000,185.469 C 71.000,185.469 71.000,185.469 65.000,185.469" stroke-width="3.133" stroke="black" fill="none" stroke-linecap="round"></path><path d="M 65.000,185.469 C 62.000,185.469 58.780,184.808 59.000,185.469" stroke-width="3.747" stroke="black" fill="none" stroke-linecap="round"></path><path d="M 59.000,185.469 C 59.280,186.308 62.306,187.915 66.000,188.469" stroke-width="4.704" stroke="black" fill="none" stroke-linecap="round"></path><path d="M 66.000,188.469 C 72.306,189.415 72.500,188.469 79.000,188.469" stroke-width="3.456" stroke="black" fill="none" stroke-linecap="round"></path><path d="M 79.000,188.469 C 92.000,188.469 92.006,188.204 105.000,188.469" stroke-width="2.419" stroke="black" fill="none" stroke-linecap="round"></path><path d="M 105.000,188.469 C 116.506,188.704 116.494,189.260 128.000,189.469" stroke-width="2.398" stroke="black" fill="none" stroke-linecap="round"></path><path d="M 128.000,189.469 C 143.994,189.760 144.004,189.211 160.000,189.469" stroke-width="2.067" stroke="black" fill="none" stroke-linecap="round"></path><path d="M 160.000,189.469 C 175.004,189.711 175.063,189.376 190.000,190.469" stroke-width="1.988" stroke="black" fill="none" stroke-linecap="round"></path><path d="M 190.000,190.469 C 195.563,190.876 195.469,191.818 201.000,192.469" stroke-width="2.800" stroke="black" fill="none" stroke-linecap="round"></path><path d="M 201.000,192.469 C 203.969,192.818 205.053,191.008 207.000,192.469" stroke-width="3.629" stroke="black" fill="none" stroke-linecap="round"></path><path d="M 207.000,192.469 C 209.053,194.008 209.260,195.607 209.000,198.469" stroke-width="4.573" stroke="black" fill="none" stroke-linecap="round"></path><path d="M 209.000,198.469 C 208.760,201.107 207.528,200.986 206.000,203.469" stroke-width="4.716" stroke="black" fill="none" stroke-linecap="round"></path><path d="M 206.000,203.469 C 203.528,207.486 203.616,207.545 201.000,211.469" stroke-width="3.825" stroke="black" fill="none" stroke-linecap="round"></path><path d="M 201.000,211.469 C 197.616,216.545 197.231,216.299 194.000,221.469" stroke-width="3.358" stroke="black" fill="none" stroke-linecap="round"></path><path d="M 194.000,221.469 C 189.731,228.299 189.600,228.268 186.000,235.469" stroke-width="2.948" stroke="black" fill="none" stroke-linecap="round"></path><path d="M 186.000,235.469 C 182.100,243.268 182.240,243.369 179.000,251.469" stroke-width="2.882" stroke="black" fill="none" stroke-linecap="round"></path><path d="M 179.000,251.469 C 177.240,255.869 177.301,255.916 176.000,260.469" stroke-width="3.356" stroke="black" fill="none" stroke-linecap="round"></path><path d="M 176.000,260.469 C 175.301,262.916 173.576,264.935 175.000,265.469" stroke-width="4.301" stroke="black" fill="none" stroke-linecap="round"></path><path d="M 175.000,265.469 C 177.576,266.435 179.545,264.641 184.000,263.469" stroke-width="4.818" stroke="black" fill="none" stroke-linecap="round"></path><path d="M 184.000,263.469 C 189.045,262.141 189.078,262.192 194.000,260.469" stroke-width="3.733" stroke="black" fill="none" stroke-linecap="round"></path><path d="M 194.000,260.469 C 199.078,258.692 199.194,258.872 204.000,256.469" stroke-width="3.525" stroke="black" fill="none" stroke-linecap="round"></path><path d="M 204.000,256.469 C 211.194,252.872 211.000,252.469 218.000,248.469" stroke-width="2.985" stroke="black" fill="none" stroke-linecap="round"></path><path d="M 218.000,248.469 C 221.500,246.469 222.098,247.080 225.000,244.469" stroke-width="3.477" stroke="black" fill="none" stroke-linecap="round"></path><path d="M 225.000,244.469 C 227.098,242.580 226.700,242.068 228.000,239.469" stroke-width="3.905" stroke="black" fill="none" stroke-linecap="round"></path><path d="M 228.000,239.469 C 229.200,237.068 230.428,236.820 230.000,234.469" stroke-width="4.500" stroke="black" fill="none" stroke-linecap="round"></path><path d="M 230.000,234.469 C 229.428,231.320 228.052,228.241 226.000,228.469" stroke-width="4.783" stroke="black" fill="none" stroke-linecap="round"></path><path d="M 226.000,228.469 C 223.552,228.741 222.581,231.674 221.000,235.469" stroke-width="5.054" stroke="black" fill="none" stroke-linecap="round"></path><path d="M 221.000,235.469 C 220.081,237.674 221.000,237.969 221.000,240.469" stroke-width="4.490" stroke="black" fill="none" stroke-linecap="round"></path><path d="M 221.000,240.469 C 221.000,243.969 221.000,243.969 221.000,247.469" stroke-width="4.173" stroke="black" fill="none" stroke-linecap="round"></path><path d="M 221.000,247.469 C 221.000,250.469 220.182,250.741 221.000,253.469" stroke-width="4.567" stroke="black" fill="none" stroke-linecap="round"></path><path d="M 221.000,253.469 C 221.682,255.741 221.964,256.247 224.000,257.469" stroke-width="4.798" stroke="black" fill="none" stroke-linecap="round"></path><path d="M 224.000,257.469 C 226.964,259.247 227.443,258.876 231.000,259.469" stroke-width="4.645" stroke="black" fill="none" stroke-linecap="round"></path><path d="M 231.000,259.469 C 233.443,259.876 233.500,259.469 236.000,259.469" stroke-width="4.432" stroke="black" fill="none" stroke-linecap="round"></path><path d="M 236.000,259.469 C 241.000,259.469 241.212,260.367 246.000,259.469" stroke-width="3.705" stroke="black" fill="none" stroke-linecap="round"></path><path d="M 246.000,259.469 C 249.212,258.867 249.228,258.317 252.000,256.469" stroke-width="3.929" stroke="black" fill="none" stroke-linecap="round"></path><path d="M 252.000,256.469 C 255.228,254.317 255.424,254.331 258.000,251.469" stroke-width="3.925" stroke="black" fill="none" stroke-linecap="round"></path><path d="M 258.000,251.469 C 259.924,249.331 259.801,249.107 261.000,246.469" stroke-width="4.061" stroke="black" fill="none" stroke-linecap="round"></path><path d="M 261.000,246.469 C 262.301,243.607 261.920,243.439 263.000,240.469" stroke-width="4.088" stroke="black" fill="none" stroke-linecap="round"></path><path d="M 263.000,240.469 C 263.920,237.939 264.565,235.034 265.000,235.469" stroke-width="4.734" stroke="black" fill="none" stroke-linecap="round"></path><path d="M 265.000,235.469 C 265.565,236.034 265.000,238.969 265.000,242.469" stroke-width="5.043" stroke="black" fill="none" stroke-linecap="round"></path><path d="M 265.000,242.469 C 265.000,244.969 264.752,244.993 265.000,247.469" stroke-width="4.534" stroke="black" fill="none" stroke-linecap="round"></path><path d="M 265.000,247.469 C 265.252,249.993 266.223,252.692 266.000,252.469" stroke-width="4.752" stroke="black" fill="none" stroke-linecap="round"></path><path d="M 266.000,252.469 C 265.723,252.192 264.000,249.547 264.000,246.469" stroke-width="5.154" stroke="black" fill="none" stroke-linecap="round"></path><path d="M 264.000,246.469 C 264.000,240.547 263.150,239.599 266.000,234.469" stroke-width="3.680" stroke="black" fill="none" stroke-linecap="round"></path><path d="M 266.000,234.469 C 270.650,226.099 271.995,226.473 279.000,219.469" stroke-width="2.847" stroke="black" fill="none" stroke-linecap="round"></path><path d="M 279.000,219.469 C 288.495,209.973 288.837,210.277 299.000,201.469" stroke-width="2.277" stroke="black" fill="none" stroke-linecap="round"></path><path d="M 299.000,201.469 C 303.837,197.277 303.850,197.264 309.000,193.469" stroke-width="2.811" stroke="black" fill="none" stroke-linecap="round"></path><path d="M 309.000,193.469 C 313.350,190.264 313.267,189.993 318.000,187.469" stroke-width="3.172" stroke="black" fill="none" stroke-linecap="round"></path><path d="M 318.000,187.469 C 320.767,185.993 322.216,184.449 324.000,185.469" stroke-width="4.117" stroke="black" fill="none" stroke-linecap="round"></path><path d="M 324.000,185.469 C 325.716,186.449 325.000,188.477 325.000,191.469" stroke-width="4.877" stroke="black" fill="none" stroke-linecap="round"></path><path d="M 325.000,191.469 C 325.000,193.977 324.500,193.969 324.000,196.469" stroke-width="4.874" stroke="black" fill="none" stroke-linecap="round"></path><path d="M 324.000,196.469 C 323.500,198.969 321.554,201.308 323.000,201.469" stroke-width="4.873" stroke="black" fill="none" stroke-linecap="round"></path><path d="M 323.000,201.469 C 326.054,201.808 328.323,200.099 333.000,197.469" stroke-width="5.098" stroke="black" fill="none" stroke-linecap="round"></path><path d="M 333.000,197.469 C 344.323,191.099 344.044,190.537 355.000,183.469" stroke-width="2.750" stroke="black" fill="none" stroke-linecap="round"></path><path d="M 355.000,183.469 C 359.544,180.537 359.865,180.937 364.000,177.469" stroke-width="3.148" stroke="black" fill="none" stroke-linecap="round"></path><path d="M 364.000,177.469 C 375.365,167.937 376.212,168.481 386.000,157.469" stroke-width="2.286" stroke="black" fill="none" stroke-linecap="round"></path><path d="M 386.000,157.469 C 392.212,150.481 391.919,149.902 396.000,141.469" stroke-width="2.539" stroke="black" fill="none" stroke-linecap="round"></path><path d="M 396.000,141.469 C 399.419,134.402 399.613,134.197 401.000,126.469" stroke-width="2.736" stroke="black" fill="none" stroke-linecap="round"></path><path d="M 401.000,126.469 C 403.113,114.697 402.233,114.484 403.000,102.469" stroke-width="2.496" stroke="black" fill="none" stroke-linecap="round"></path><path d="M 403.000,102.469 C 403.733,90.984 403.662,90.972 404.000,79.469" stroke-width="2.420" stroke="black" fill="none" stroke-linecap="round"></path><path d="M 404.000,79.469 C 404.162,73.972 404.000,73.969 404.000,68.469" stroke-width="2.994" stroke="black" fill="none" stroke-linecap="round"></path><path d="M 404.000,68.469 C 404.000,62.969 405.208,62.603 404.000,57.469" stroke-width="3.277" stroke="black" fill="none" stroke-linecap="round"></path><path d="M 404.000,57.469 C 403.208,54.103 401.935,51.745 400.000,51.469" stroke-width="4.098" stroke="black" fill="none" stroke-linecap="round"></path><path d="M 400.000,51.469 C 398.435,51.245 398.381,53.904 397.000,56.469" stroke-width="4.720" stroke="black" fill="none" stroke-linecap="round"></path><path d="M 397.000,56.469 C 394.881,60.404 394.922,60.432 393.000,64.469" stroke-width="3.882" stroke="black" fill="none" stroke-linecap="round"></path><path d="M 393.000,64.469 C 389.922,70.932 389.893,70.921 387.000,77.469" stroke-width="3.326" stroke="black" fill="none" stroke-linecap="round"></path><path d="M 387.000,77.469 C 380.393,92.421 379.785,92.195 374.000,107.469" stroke-width="2.132" stroke="black" fill="none" stroke-linecap="round"></path><path d="M 374.000,107.469 C 367.285,125.195 367.874,125.428 362.000,143.469" stroke-width="1.785" stroke="black" fill="none" stroke-linecap="round"></path><path d="M 362.000,143.469 C 353.874,168.428 352.673,168.112 346.000,193.469" stroke-width="1.477" stroke="black" fill="none" stroke-linecap="round"></path><path d="M 346.000,193.469 C 337.673,225.112 338.184,225.312 332.000,257.469" stroke-width="1.239" stroke="black" fill="none" stroke-linecap="round"></path><path d="M 332.000,257.469 C 325.684,290.312 306.742,308.473 321.000,323.469" stroke-width="1.127" stroke="black" fill="none" stroke-linecap="round"></path><path d="M 321.000,323.469 C 335.742,338.973 360.254,329.785 390.000,318.469" stroke-width="2.285" stroke="black" fill="none" stroke-linecap="round"></path><path d="M 390.000,318.469 C 406.254,312.285 401.719,303.628 413.000,288.469" stroke-width="1.878" stroke="black" fill="none" stroke-linecap="round"></path><path d="M 413.000,288.469 C 417.719,282.128 417.547,282.000 422.000,275.469" stroke-width="2.500" stroke="black" fill="none" stroke-linecap="round"></path><path d="M 422.000,275.469 C 425.047,271.000 425.330,271.142 428.000,266.469" stroke-width="3.044" stroke="black" fill="none" stroke-linecap="round"></path><path d="M 428.000,266.469 C 429.330,264.142 429.230,264.037 430.000,261.469" stroke-width="3.843" stroke="black" fill="none" stroke-linecap="round"></path><path d="M 430.000,261.469 C 430.730,259.037 430.831,259.002 431.000,256.469" stroke-width="4.129" stroke="black" fill="none" stroke-linecap="round"></path><path d="M 431.000,256.469 C 431.331,251.502 431.000,251.469 431.000,246.469" stroke-width="4.259" stroke="black" fill="none" stroke-linecap="round"></path><path d="M 431.000,246.469 C 431.000,243.969 431.750,243.719 431.000,241.469" stroke-width="4.278" stroke="black" fill="none" stroke-linecap="round"></path><path d="M 431.000,241.469 C 430.250,239.219 428.000,237.042 428.000,237.469" stroke-width="5.044" stroke="black" fill="none" stroke-linecap="round"></path><path d="M 428.000,237.469 C 428.000,238.042 429.101,240.756 431.000,243.469" stroke-width="5.323" stroke="black" fill="none" stroke-linecap="round"></path><path d="M 431.000,243.469 C 432.601,245.756 432.639,246.052 435.000,247.469" stroke-width="5.159" stroke="black" fill="none" stroke-linecap="round"></path><path d="M 435.000,247.469 C 437.639,249.052 437.942,248.704 441.000,249.469" stroke-width="4.826" stroke="black" fill="none" stroke-linecap="round"></path><path d="M 441.000,249.469 C 443.942,250.204 443.981,250.194 447.000,250.469" stroke-width="4.788" stroke="black" fill="none" stroke-linecap="round"></path><path d="M 447.000,250.469 C 449.481,250.694 449.703,251.234 452.000,250.469" stroke-width="4.425" stroke="black" fill="none" stroke-linecap="round"></path><path d="M 452.000,250.469 C 455.703,249.234 455.992,249.075 459.000,246.469" stroke-width="3.980" stroke="black" fill="none" stroke-linecap="round"></path><path d="M 459.000,246.469 C 463.492,242.575 463.083,242.039 467.000,237.469" stroke-width="3.473" stroke="black" fill="none" stroke-linecap="round"></path><path d="M 467.000,237.469 C 469.083,235.039 469.168,235.086 471.000,232.469" stroke-width="3.837" stroke="black" fill="none" stroke-linecap="round"></path><path d="M 471.000,232.469 C 472.668,230.086 472.801,230.107 474.000,227.469" stroke-width="4.076" stroke="black" fill="none" stroke-linecap="round"></path><path d="M 474.000,227.469 C 475.301,224.607 474.920,221.739 476.000,221.469" stroke-width="4.507" stroke="black" fill="none" stroke-linecap="round"></path><path d="M 476.000,221.469 C 476.920,221.239 477.230,223.901 478.000,226.469" stroke-width="5.171" stroke="black" fill="none" stroke-linecap="round"></path><path d="M 478.000,226.469 C 478.730,228.901 478.427,228.985 479.000,231.469" stroke-width="4.502" stroke="black" fill="none" stroke-linecap="round"></path><path d="M 479.000,231.469 C 479.927,235.485 479.621,235.609 481.000,239.469" stroke-width="3.918" stroke="black" fill="none" stroke-linecap="round"></path><path d="M 481.000,239.469 C 482.121,242.609 482.613,242.418 484.000,245.469" stroke-width="3.998" stroke="black" fill="none" stroke-linecap="round"></path><path d="M 484.000,245.469 C 485.113,247.918 484.444,248.395 486.000,250.469" stroke-width="4.186" stroke="black" fill="none" stroke-linecap="round"></path><path d="M 486.000,250.469 C 487.444,252.395 488.529,254.449 490.000,253.469" stroke-width="4.664" stroke="black" fill="none" stroke-linecap="round"></path><path d="M 490.000,253.469 C 493.029,251.449 492.914,249.163 495.000,244.469" stroke-width="4.653" stroke="black" fill="none" stroke-linecap="round"></path><path d="M 495.000,244.469 C 498.914,235.663 498.587,235.502 502.000,226.469" stroke-width="3.101" stroke="black" fill="none" stroke-linecap="round"></path><path d="M 502.000,226.469 C 507.087,213.002 507.357,213.087 512.000,199.469" stroke-width="2.247" stroke="black" fill="none" stroke-linecap="round"></path><path d="M 512.000,199.469 C 514.857,191.087 514.669,191.015 517.000,182.469" stroke-width="2.579" stroke="black" fill="none" stroke-linecap="round"></path><path d="M 517.000,182.469 C 519.169,174.515 518.919,174.447 521.000,166.469" stroke-width="2.710" stroke="black" fill="none" stroke-linecap="round"></path><path d="M 521.000,166.469 C 521.919,162.947 520.717,160.991 523.000,159.469" stroke-width="3.467" stroke="black" fill="none" stroke-linecap="round"></path><path d="M 523.000,159.469 C 525.217,157.991 526.851,159.157 530.000,160.469" stroke-width="4.601" stroke="black" fill="none" stroke-linecap="round"></path><path d="M 530.000,160.469 C 532.851,161.657 533.047,162.027 535.000,164.469" stroke-width="4.693" stroke="black" fill="none" stroke-linecap="round"></path><path d="M 535.000,164.469 C 537.047,167.027 537.208,167.302 538.000,170.469" stroke-width="4.860" stroke="black" fill="none" stroke-linecap="round"></path><path d="M 538.000,170.469 C 538.708,173.302 538.000,173.469 538.000,176.469" stroke-width="4.295" stroke="black" fill="none" stroke-linecap="round"></path><path d="M 538.000,176.469 C 538.000,182.469 538.374,182.487 538.000,188.469" stroke-width="3.477" stroke="black" fill="none" stroke-linecap="round"></path><path d="M 538.000,188.469 C 537.374,198.487 536.938,198.463 536.000,208.469" stroke-width="2.724" stroke="black" fill="none" stroke-linecap="round"></path><path d="M 536.000,208.469 C 535.438,214.463 535.462,214.466 535.000,220.469" stroke-width="3.047" stroke="black" fill="none" stroke-linecap="round"></path><path d="M 535.000,220.469 C 534.462,227.466 534.318,227.462 534.000,234.469" stroke-width="3.071" stroke="black" fill="none" stroke-linecap="round"></path><path d="M 534.000,234.469 C 533.818,238.462 534.000,238.469 534.000,242.469" stroke-width="3.517" stroke="black" fill="none" stroke-linecap="round"></path><path d="M 534.000,242.469 C 534.000,248.469 533.407,248.542 534.000,254.469" stroke-width="3.299" stroke="black" fill="none" stroke-linecap="round"></path><path d="M 534.000,254.469 C 534.407,258.542 534.514,258.648 536.000,262.469" stroke-width="3.627" stroke="black" fill="none" stroke-linecap="round"></path><path d="M 536.000,262.469 C 538.014,267.648 538.056,267.759 541.000,272.469" stroke-width="3.400" stroke="black" fill="none" stroke-linecap="round"></path><path d="M 541.000,272.469 C 543.056,275.759 543.588,275.399 546.000,278.469" stroke-width="3.706" stroke="black" fill="none" stroke-linecap="round"></path><path d="M 546.000,278.469 C 549.088,282.399 548.849,282.591 552.000,286.469" stroke-width="3.531" stroke="black" fill="none" stroke-linecap="round"></path><path d="M 552.000,286.469 C 555.349,290.591 555.250,290.719 559.000,294.469" stroke-width="3.482" stroke="black" fill="none" stroke-linecap="round"></path><path d="M 559.000,294.469 C 562.750,298.219 562.297,299.313 567.000,301.469" stroke-width="3.467" stroke="black" fill="none" stroke-linecap="round"></path></svg>